<svg xmlns="http://www.w3.org/2000/svg" version="1.1" id="Calque_4" viewBox="27.5 176.0 521.0 521.0" width="521" height="521" fill="white"><metadata><rdf:RDF xmlns:rdf="http://www.w3.org/1999/02/22-rdf-syntax-ns#" xmlns:dc="http://purl.org/dc/elements/1.1/"><rdf:Description><dc:creator>RealFaviconGenerator</dc:creator><dc:source>https://realfavicongenerator.net</dc:source></rdf:Description></rdf:RDF></metadata><defs>
    <style>
      .st0 {
        font-family: Silom, Silom;
        font-size: 30.88px;
      }
    </style>
  </defs><g>
    <path d="M59.1,328.76l27.28,11.83c2.62,1.14,4.3,2.63,5.03,4.49.73,1.86.53,4.09-.61,6.71l-3.37,7.77c-1.14,2.62-2.63,4.3-4.49,5.03-1.86.73-4.09.53-6.71-.61l-7.77-3.37,3.39-7.81,7.77,3.37c1.09.47,2.19.5,3.28.06,1.1-.43,1.87-1.18,2.33-2.24.46-1.06.47-2.14.04-3.23s-1.19-1.88-2.29-2.35l-27.28-11.83,3.39-7.81Z"></path>
    <path d="M97.53,337.54l-32.68-19.88,11.05-18.17,3.62,2.2-6.63,10.89,10.89,6.63,4.43-7.28,3.66,2.23-4.43,7.28,10.89,6.63,6.63-10.89,3.62,2.2-11.05,18.17Z"></path>
    <path d="M94.1,275.88l5.41-6.51,22.87,19c1.78,1.48,2.78,3.39,3.01,5.75.23,2.36-.39,4.43-1.87,6.2l-5.44,6.55c-1.48,1.78-3.39,2.78-5.75,3.01-2.36.23-4.44-.4-6.24-1.9l-22.87-19,5.44-6.55,22.87,19c.89.74,1.93,1.06,3.11.96,1.19-.1,2.15-.59,2.89-1.48.76-.92,1.08-1.96.96-3.15-.12-1.18-.63-2.15-1.52-2.88l-22.87-19Z"></path>
    <path d="M133.75,288.64l-24.97-28.97,1.51-1.3,31.69.76-13.89-16.11,3.24-2.8,24.97,28.97-1.47,1.27-31.73-.72,13.89,16.11-3.24,2.8Z"></path>
    <path d="M162.24,265.26l-20.13-32.52,18.08-11.19,2.23,3.6-10.84,6.71,6.71,10.84,7.24-4.48,2.25,3.64-7.24,4.48,6.71,10.84,10.84-6.71,2.23,3.6-18.08,11.19Z"></path>
    <path d="M194.18,214.89l-3.87,1.71c-1.5-2.46-3.3-3.22-5.42-2.29-1.37.6-2.25,1.38-2.65,2.34-.4.96-.31,2.09.27,3.39.43.96,1.21,1.72,2.34,2.26l12.34,5.59c2.28,1.04,3.85,2.54,4.72,4.49l.84,1.91c.93,2.12.98,4.28.13,6.49-.84,2.21-2.34,3.79-4.49,4.74l-3.87,1.71c-2.58,1.14-4.81,1.35-6.69.64-1.88-.71-3.39-2.38-4.54-4.99l3.92-1.73c.12.28.22.5.29.65.47,1.06,1.23,1.69,2.28,1.89,1.06.2,2.07.09,3.03-.33,1.37-.6,2.21-1.37,2.52-2.31.31-.94.19-2.04-.38-3.32-.44-1-1.22-1.75-2.33-2.26l-12.34-5.59c-2.27-1.01-3.84-2.51-4.72-4.5l-.85-1.91c-.93-2.12-.98-4.28-.13-6.49s2.34-3.79,4.49-4.74l3.87-1.71c4.88-2.16,8.63-.71,11.23,4.35Z"></path>
    <path d="M225.33,205.2l-4.07,1.16c-1.14-2.64-2.83-3.65-5.05-3.02-1.44.41-2.42,1.06-2.94,1.95-.52.89-.59,2.02-.2,3.4.29,1.01.96,1.87,2,2.56l11.45,7.24c2.11,1.34,3.46,3.04,4.05,5.1l.57,2.01c.63,2.22.38,4.37-.76,6.45s-2.84,3.43-5.1,4.08l-4.07,1.16c-2.71.77-4.95.68-6.71-.29-1.76-.96-3.03-2.82-3.81-5.57l4.12-1.17c.08.29.15.52.2.69.32,1.11.98,1.84,2,2.19,1.02.35,2.03.37,3.05.09,1.44-.41,2.38-1.06,2.81-1.94.44-.89.46-2,.08-3.34-.3-1.05-.96-1.9-2-2.56l-11.45-7.24c-2.11-1.31-3.46-3.01-4.05-5.1l-.57-2.01c-.63-2.22-.38-4.37.76-6.45,1.14-2.08,2.84-3.43,5.1-4.08l4.07-1.16c5.13-1.46,8.64.49,10.52,5.86Z"></path>
    <path d="M240.56,232.3l-5.36-37.87,21.06-2.98.59,4.19-12.62,1.79,1.79,12.62,8.43-1.19.6,4.24-8.43,1.19,1.79,12.62,12.62-1.79.59,4.19-21.06,2.98Z"></path>
    <path d="M307.02,221.46c-.7,5.65-3.7,8.3-8.99,7.96l-8.5-.54c-2.31-.15-4.25-1.11-5.82-2.88-1.57-1.77-2.29-3.83-2.14-6.17l1.35-21.17c.15-2.31,1.1-4.25,2.85-5.82,1.75-1.57,3.82-2.29,6.19-2.13l8.5.54c5.33.34,7.96,3.35,7.91,9.04l-4.22-.27c-.16-2.87-1.47-4.39-3.95-4.55l-4.28-.27c-1.15-.07-2.17.28-3.06,1.06-.89.78-1.37,1.76-1.44,2.95l-1.35,21.17c-.07,1.15.28,2.18,1.05,3.08.78.9,1.74,1.39,2.9,1.46l4.28.27c2.51.16,4.01-1.17,4.5-4.01l4.22.27Z"></path>
    <path d="M330.28,195.54l8.31,1.88c2.26.51,4.01,1.77,5.26,3.78,1.25,2.01,1.63,4.14,1.12,6.4l-4.67,20.7c-.51,2.26-1.76,4.02-3.76,5.29-2,1.27-4.12,1.66-6.38,1.15l-8.31-1.88c-2.26-.51-4.02-1.76-5.29-3.76-1.27-2-1.65-4.14-1.14-6.43l4.67-20.7c.52-2.29,1.78-4.06,3.79-5.31,2.01-1.25,4.14-1.63,6.4-1.12ZM328.4,203.85l-4.67,20.7c-.25,1.13-.07,2.2.56,3.21.62,1.01,1.5,1.65,2.63,1.9,1.16.26,2.24.07,3.24-.57,1-.65,1.63-1.53,1.88-2.66l4.67-20.69c.26-1.16.08-2.24-.55-3.24-.63-1-1.52-1.62-2.69-1.89-1.13-.25-2.19-.07-3.18.56-1,.63-1.62,1.52-1.89,2.68Z"></path>
    <path d="M345.18,238.54l14.54-35.38,1.84.76,13.67,28.61,8.08-19.67,3.96,1.63-14.54,35.38-1.79-.74-13.71-28.62-8.08,19.67-3.96-1.63Z"></path>
    <path d="M412.55,239.03l-3.62-2.2c1.17-2.63.76-4.55-1.21-5.75-1.28-.78-2.42-1.06-3.43-.84-1.01.22-1.89.94-2.63,2.16-.55.9-.72,1.97-.52,3.21l2.46,13.32c.45,2.46.12,4.61-1,6.44l-1.09,1.79c-1.2,1.98-2.95,3.25-5.25,3.82-2.3.57-4.45.25-6.45-.97l-3.62-2.2c-2.41-1.47-3.86-3.17-4.34-5.12-.49-1.95.01-4.14,1.5-6.58l3.66,2.23c-.16.26-.28.46-.37.61-.6.99-.68,1.97-.25,2.96.44.98,1.1,1.75,2,2.3,1.28.78,2.39,1.03,3.34.75.95-.28,1.78-1.01,2.51-2.2.57-.93.74-2,.52-3.21l-2.46-13.32c-.47-2.44-.14-4.58,1-6.44l1.09-1.79c1.2-1.97,2.95-3.25,5.25-3.82,2.3-.57,4.45-.25,6.45.97l3.62,2.2c4.56,2.78,5.51,6.68,2.85,11.7Z"></path>
    <path d="M406.37,271.41l21.23-26.58-6.66-5.31,2.64-3.31,19.93,15.91-2.64,3.31-6.66-5.31-21.23,26.58-6.62-5.28Z"></path>
    <path d="M421.9,284.07l21.55-20.49c1.7-1.62,3.73-2.39,6.1-2.32,2.37.07,4.35.95,5.94,2.62l5.87,6.17c1.59,1.67,2.35,3.7,2.28,6.06-.07,2.37-.95,4.35-2.62,5.94l-21.55,20.49-5.83-6.14,12.31-11.7-5.87-6.17-12.31,11.7-5.87-6.17ZM443.18,275.59l5.87,6.17,6.14-5.83c.86-.82,1.31-1.82,1.34-3,.03-1.18-.37-2.2-1.18-3.06-.8-.84-1.78-1.27-2.96-1.3-1.18-.03-2.2.37-3.06,1.19l-6.14,5.83Z"></path>
    <path d="M444.04,307.95l31.71-21.39,1.11,1.65-4.49,31.38,17.63-11.89,2.4,3.55-31.71,21.39-1.08-1.61,4.46-31.43-17.63,11.89-2.39-3.55Z"></path>
    <path d="M465.69,342.97l30.7-14.65-3.67-7.69,3.82-1.82,10.98,23.01-3.82,1.82-3.67-7.69-30.7,14.65-3.65-7.64Z"></path>
    <path d="M475.34,365.41l36.23-12.27,2.71,8.02-36.23,12.27-2.72-8.02Z"></path>
    <path d="M481.67,384.29l37.64-6.81.35,1.96-16.74,26.92,20.93-3.79.76,4.22-37.64,6.81-.34-1.91,16.73-26.97-20.93,3.79-.76-4.22Z"></path>
    <path d="M487.37,420.72l38.24-.92.51,21.26-4.23.1-.31-12.75-12.75.31.21,8.51-4.28.1-.21-8.51-12.75.31.31,12.75-4.23.1-.51-21.26Z"></path>
    <path d="M500.23,450.68l4.21.48-2.41,21.13-4.21-.48,2.41-21.13Z"></path>
    <path d="M484.72,477.28l36.53,11.35-.59,1.9-22.68,11.96,11.92,22.66-1.27,4.09-36.53-11.35,2.53-8.13,22.31,6.93-9.8-18.64,18.63-9.75-22.31-6.93,1.27-4.09Z"></path>
    <path d="M498.2,549.59l-4.07,7.48c-1.1,2.03-2.79,3.38-5.07,4.03-2.27.66-4.43.44-6.46-.67l-18.64-10.14c-2.03-1.11-3.39-2.79-4.07-5.06-.68-2.27-.47-4.42.63-6.45l4.07-7.48c1.11-2.03,2.79-3.39,5.06-4.07,2.27-.68,4.43-.46,6.49.66l18.64,10.14c2.06,1.12,3.42,2.82,4.08,5.09.66,2.27.44,4.43-.67,6.46ZM490.72,545.52l-18.64-10.14c-1.02-.55-2.1-.67-3.24-.34-1.14.32-1.99,1-2.55,2.01-.57,1.04-.68,2.14-.33,3.28.35,1.14,1.03,1.98,2.05,2.54l18.64,10.14c1.05.57,2.13.69,3.26.35,1.13-.33,1.98-1.02,2.55-2.07.55-1.01.66-2.09.33-3.22-.33-1.13-1.02-1.98-2.07-2.55Z"></path>
    <path d="M452.75,552.24l30.11,23.59-1.23,1.57-31.24,5.4,16.74,13.11-2.64,3.37-30.11-23.59,1.2-1.53,31.27-5.44-16.74-13.11,2.64-3.37Z"></path>
    <path d="M426.1,583.65l23.43,24.66,6.17-5.87,2.92,3.07-18.49,17.56-2.92-3.07,6.17-5.87-23.43-24.66,6.14-5.83Z"></path>
    <path d="M412.12,597.63l21.06,31.93-1.66,1.1-25.13-5.12-5.14,25.08-3.58,2.36-21.06-31.93,7.11-4.69,12.86,19.5,4.23-20.63,20.59,4.26-12.86-19.5,3.58-2.36Z"></path>
    <path d="M370.22,623.47l11.18,27.55c.88,2.17.86,4.35-.08,6.53-.93,2.18-2.47,3.7-4.61,4.57l-7.89,3.2c-2.14.87-4.3.84-6.48-.1-2.18-.93-3.7-2.47-4.57-4.61l-11.18-27.55,7.84-3.18,6.39,15.74,7.89-3.2-6.39-15.74,7.89-3.2ZM370.32,646.38l-7.89,3.2,3.18,7.85c.45,1.1,1.21,1.88,2.3,2.34,1.09.46,2.18.46,3.28.02,1.07-.43,1.84-1.19,2.29-2.28.46-1.09.46-2.18.02-3.28l-3.18-7.84Z"></path>
    <path d="M332.18,658.81l-12.42,2.88-2.88-12.42c-.64-2.78-.25-5.06,1.19-6.85s3.15-2.9,5.14-3.36l8.3-1.92c2.25-.52,4.39-.16,6.4,1.08,2.01,1.24,3.29,3.01,3.82,5.29l4.79,20.67c.52,2.25.17,4.38-1.06,6.4-1.23,2.01-3,3.29-5.32,3.82l-8.3,1.92c-5.2,1.21-8.59-.92-10.17-6.39l4.12-.96c.98,2.71,2.67,3.78,5.09,3.22l4.17-.97c1.13-.26,2-.89,2.62-1.89.62-1,.8-2.08.53-3.24l-4.79-20.67c-.27-1.16-.9-2.05-1.9-2.67-1-.62-2.06-.8-3.19-.54-2.62.75-3.69,2.46-3.21,5.14l1.91,8.25,4.17-.97.97,4.17Z"></path>
    <path d="M307.95,642.16l2.38,38.17-1.99.12-24.79-19.76,1.33,21.23-4.28.27-2.38-38.18,1.93-.12,24.84,19.76-1.33-21.23,4.28-.27Z"></path>
    <path d="M262.76,642.81l-1.77,16.89c5.58,1.27,8.1,4.39,7.58,9.36l-1.33,12.68-8.47-.89,1.33-12.68c.12-1.15-.19-2.18-.93-3.1-.74-.92-1.69-1.43-2.84-1.55-1.18-.12-2.23.18-3.15.93-.92.74-1.43,1.69-1.55,2.84l-1.33,12.68-8.42-.88,1.33-12.68c.52-4.97,3.62-7.5,9.31-7.59l1.77-16.89,8.47.88Z"></path>
  </g><g>
    <path d="M307.63,370.94c10.7-.78,18.78,7.71,32.29,13.51-8.08-18.33-31.61-31.1-32.29-13.51"></path>
    <path d="M378.26,402.75c4.23-2.21,11.19-6.37,19.19-11.25-9.57,1.01-17.47,5.67-19.19,11.25"></path>
    <path d="M193.03,541.96c-1.29,6.69-.16,10.27,2.02,12.52,1.05-5.89,1.34-10.57-2.02-12.52"></path>
    <path d="M272.6,537.02c-10.42,1.9-29.63,13.09-33.85,32.86,4.02,1.17,9.25.48,16.12-2.73l-4.65,7.66c5.23-4.94,10.22-10.35,14.91-16.38-7.84,1.84-14.7,9.82-23.46,8.72,3.24-12.39,18.34-21.62,30.94-30.13Z"></path>
    <path d="M86.74,407.74c8.03,9.12,15.6,12,25.75,8.09-5.61,8.96-27.04,3.35-25.75-8.09"></path>
    <path d="M69.87,550.07c20.29,6.37,34.34,7.2,52.05,7.49-20.29,5.89-50.54-4.18-52.05-7.49"></path>
    <path d="M138.49,452.38c-6.45-1.19-6.6-.02-8.38,3.62-9.13,20.28-11.57,53.3-11.8,87.78-.21,3.42.34,4.72,9.9,5.04,6.04.64,5.05-8.76,7.32-20.83,2.35-15.88,5.21-43.54,8.1-72.1.27-2.09-1.77-3.11-5.14-3.51ZM140.85,461.56c-3.74,17.44-6.22,34.59-6.46,51.24.22,10.46-.04,19.7-1.78,25.27-1.61,5.61-5.87,7.4-10.97,7.98-.31-36.03,1.63-66.27,11.33-89.34.72-2.15,2.27-3.28,4.89-3.07,3.28.02,4.81,1.19,2.98,7.91Z"></path>
    <path d="M452.97,361.64c-9.41-22.24-22.87-42.21-40.02-59.36-17.15-17.15-37.12-30.61-59.36-40.02-23.03-9.74-47.49-14.68-72.7-14.68s-49.67,4.94-72.7,14.68c-22.24,9.41-42.21,22.87-59.36,40.02-17.15,17.15-30.61,37.12-40.02,59.36-1.07,2.54-2.04,5-3,7.58.01,0,.03.02.04.02-2.45-.96-5.18-1.51-8.1-1.78-11.14.84-14.04,8.68-26.84,18.1-.05,4.98-2.55,9.52-10.21,17.03-4.3,4.7-5.01,9.64-1.57,14.87,4.67,5.94,6.81,11.04,6.62,15.37-5.3,30.54-15.14,79.61-25.63,131.34-.26,3.58,6.59,6.41,15.77,10.9,24.56,10.41,48.2,12.66,71.18,9,13.86-3.68,19.96-7.97,19.47-11.97l-.94-9.04c1.07,1.12,2.14,2.23,3.24,3.33,12.48,12.48,26.46,23,41.72,31.43-7.96,9.93-10.08,18.46-10.62,27.58-.2,9.59,2.19,13.37,6.3,15.24,3.46,1.75,5.72,5.11,7.79,10.09,2.42,5.81,3.41,7.49,8.08,8.25,2.99.18,5.98.42,9.23,2.64,2.69,1.42,5.08,2.31,6.93,2.23,5.86-.24,8.8-9.45,11.17-20.4.33-5.06,1.34-9.3,3.67-11.98,3.39-2.61,6.36-5.2,7.91-7.74,2.34-3.75,4.91-6.11,7.85-6.3,26.55,4.77,52.67,3.36,78.48-2.57l15.99-2.51c9.74-1.21,33.24-2.64,40.51-15.74,5.06-13.39,17.73-18.57,21.13-22.72l7.44-7.02c17.67-17.64,31.14-37.61,40.54-59.85,9.74-23.03,14.68-47.49,14.68-72.7s-4.94-49.67-14.68-72.7ZM63.13,419.4c-1.45-1.82-2.29-4.49-2.39-8.13,1.03-9.42,4.59-11.36,9.31-9.84,1.68-12.29,5.35-20.39,16.64-19.38-3.26-6.54,1.32-9.96,12.02-10.96,8.33.1,12.58,3.01,14.17,7.78.38,1.91-5.18,3.23-13.29,4.29-8.1,1.01-10.93,3.66-11.16,7.13,8.42-7.37,19.38-5.73,34.09.84l-8.31-8.52c13.14-3.69,27.22.67,24.6,13.63,9.97,5.54,17.49,11.48,16.35,19.28-.53,9.26-3.75,8.38-18.75,6.24-5.01-1.03-9.45-2.67-12.71-5.57,3.2,4.68,8.28,9.94,8.53,14.62.12,8.36-6.66,11.71-15.52,13.56.07-6.94-2.2-13.63-5.63-19.43-.37,5.97,2.35,12.18,2.85,18.38-1.32,14.5-28.49,11.89-29.14-5.04.29-4.66,2.61-10.15,5.22-13.54-2.45,1.64-4.27,3.8-5.22,6.72-1.54,5.44-2.94,6.49-4.3,6.53-8.68-.96-12.29-6.29-12.4-14.63.72-5.2,1.92-9.97,7.39-14.38-3.93,2.19-7.99,5.22-12.35,10.42ZM206.99,533c2.57,12.84,4.71,24.81,5.67,34.44-.28,12.8-4.87,19.73-13.25,21.52-.99.3-3.58-.26-6.58-1.33-4.53-2.61-8.94-5.41-13.21-8.4.04-8.78.29-18.64.57-24.74.33-10.08,4.16-18.09,16.03-21.3-2.67-.4-5.78-.02-9.15.85.99-5.98,1.91-12.27,4.42-11.6,1.69.2,4.46,1.86,7.42,3.79,1.86-4.03-9.98-8.38-9.95-12.8,4.46-13.62,6.48-22.88,4.5-26.88-7.27,17.93-3.86,23.79-16.24,25.62-5-.57-6.72-3.1-6.9-6.54.29-3.09,2.08-6.51,4.86-10.15,2.88-4.75,4.68-9.58,5.13-14.51,1.48-5.85,4.88-9.31,11.18-9.18,12.8.03,19.88,26.72,9.84,49.78,5.3,2.03,4.46,4.9,5.66,11.44ZM155.86,559.27l18.58-4.07,1.9,21.67c-7.27-5.34-14.12-11.23-20.48-17.6ZM152.78,484.84c.42-5.02,3.55-8.11,10.43-8.55,11.01,1.34,12.11,3.72,11.96,7.52-.94,7.73-3.97,10.69-5.73,10.68-9.37-1.67-17.29-3.92-16.67-9.66ZM165.81,498.53v13.72c-6.11,2.09-14.32-1.95-13.96-9.16.69-3.73,1.79-6.68,4.27-6.93,2.43.26,5.46.92,9.7,2.38ZM155.61,473.24c-3.11.58-5.19,2.31-6.72,4.84.62-3.28,1.46-5.99,1.65-8.67.26-3.7.22-3.76,4.52-3.66,7.05.29,10.68,2.04,11.27,5.1-2.48.99-6.34,1.74-10.71,2.4ZM150.33,487.72c-.24,5.68-2.98,15.37-2.92,17.4.47,5.64,1,19.32,4.43,23.89,3.19,3.78,10.33,2.95,10.31,4.39.4,2.08-5.52,3.26-6.54,3.44-7.64-.15-10.47-2.32-10.27-5.77,0-20.17,1.25-38.38,2.71-50.01,1.06,2.27,1.93,4.51,2.29,6.67ZM154.83,516.79h28.99c2.53,8.5-6.59,12.44-15.67,12.91-16.69-.19-18.57-10.57-13.33-12.91ZM174.33,476.01c-2.89-.5-4.37-3.58-5.2-7.86-.75-4.76-3.81-5.33-10.72-5.64-5.27-.48-6.54.27-5.66-7.93.79-6.69,3.61-6.65,16.57-4.19,11.84,1.94,13.38,2.16,14.46,10.08,1.36,10.95-3.47,13.98-9.45,15.54ZM114.61,462.18c-2.23,16.85-5.1,46.07-11.17,79.46-.73,4.22-1.39,5.48-6.64,4.41l-5.7-1.36c-2.29-.5-3.42-2.02-2.72-6.28,4.42-31.2,8.66-60.86,11.41-78.51.35-2.22,2.51-3.98,8.01-4.87,1.43-.39,3.92-1.37,7.26-2.81.69,2.87.3,6.12-.44,9.96ZM83.49,456.15c-.98,10.84-2.54,22.72-4.25,34.88-.73,6.62-1.87,13.56-3.4,20.82-3.7,15.15-5.72,26.6-10.04,26.27-4.16-.97-6.72-4.94-6.5-11.8,1.05-5.68,2.32-11.05,4.18-15.59,2.72-8.62,4.74-17.85,5.94-27.81,3.15-17.32,2.8-37.79,7.92-36.35,4.65.47,6.84,3.52,6.14,9.59ZM127.58,578.32c-26.12,3.87-52.19-.42-78.23-12.75-3.1-1.48-3.86-5.07-1.97-11.06,8.69-42.51,16.37-83.63,20.77-117.39,5.27,1.1,9.9,3.04,13.47,6.38-.61.55-1.64.75-2.93.73-4.13-.39-6.41,1.09-6.54,4.76-5.85,29.61-12.15,57.61-15.13,76.61-2.07,11.95.9,17.27,8.1,17.41,10.82.16,11.15-17.43,15.29-40.17,1.9-10.4,3.54-21.78,4.89-31.84.67-5.98.7-12.82,1.42-19.03l7,3.33c1.74.75,2.59,2.71,1.87,6.71l-10.07,77.61c-1.1,6.85,4.04,9.59,12.39,10.23,4.16.15,6.98-2.01,8.48-6.44,6.03-23.44,8.2-53.15,12.39-88.52-.21-2.13-.56-4.17-1.25-6.01,6.78-5.75,19.1-5.88,17.31-22.91l17.67,1.44c1.41.11,2.38,1.47,2.04,2.84-12.19,49.54-14.44,96.63-13.88,140.43.49,5.4-6.23,6.57-13.09,7.65ZM144.99,549.05c.04-3.32.23-6.68.58-10.09,2.93.39,5.55.96,9.43,1.07,7.94-1.26,7.22-5.32,27.39-10.66,3.91,12.64-12.07,25.82-25.9,25.1-7.95-.1-11.15-2.18-11.51-5.43ZM385.55,573.92c-.67,11.08-3.69,18.05-8.36,22.12-9.26,10.15-32.09,12.43-62.11,10.54-26.04-2.17-49.67-2.45-64.69,3.99.13-2.03.51-4.78.96-7.71-10.93,10.04-9.47,16.98-21.53,23.13l-2.97-4.82c-4.7,23.18-.76,34.33-9.08,36.39-2.64-.86-6.56-5.5-7.23-13.09.37-8.14,1.4-17.21,2.81-26.83-8.8,5.75-8.41,17.6-8.11,35.42-9.27-2.46-11.79-13.37-9.13-25.42,1.77-8.04,5.6-16.21,8.08-24.75-9.47,4.56-12.31,20.01-14.62,34.34-2.06-1.44-3.57-3.8-4.79-6.64-4.41-15.17,8.88-37.55,32.81-46.8,16.06-6,20.32-1.64,32.53-2.07,14.25-.1,29.4-3.66,45.19-9.74l27.55-8.84c35.15-10.48,48.36-8.09,66.59,7.77-2.65-.19-3.95.82-3.92,3.03ZM397.59,567.15c-17.92-14.79-31.64-14.39-68.54-13.58,7.46-35.27,40.03-78.9,49.36-86.29,10.18-4.29,17.47-10.36,17.69-20.77-.63-9.8-8.38-14.83-17.7-22.73-4.25-4.3-5.59-8.22.81-11.1,5.06-1.71,13.01-4.07,21.38-6.53,10.23-2.84,16.83-9.66,23.5-17.44,10.93-12.77,14.28-21.53,14.18-25.63-6.85,14.66-21.23,33.88-36.68,36.92,13.58-6.45,22.3-19.4,30.68-33.56-20.91-3.66-53.16,18.1-60.19,35.82,11.72-12.56,27.28-26.53,52.27-35.17-.52,15.76-16.26,29.59-35.96,36.08-14.78,4.03-16.69,2.83-17.8,12.93.31,8.05,5.06,11.06,16.93,21.94,4.26,3.8,6.02,7.66,3.22,11.57-3.85,6.94-12.85,13.82-25.38,20.69l-23.89,14.84c-4.04,2.55-6.71,5.35-7.57,8.47l31.46-20.02c-17.65,31.76-31.93,43.27-40.5,77.1-.47,2.66-1.7,4.79-4.24,6.01l-11.4,3.44c5.51-24.23,20.79-47.32,33.09-66.65-11.99,12.39-23.97,32.48-35.96,60.26-2.47,8.56-7.2,11.31-15.25,14.03-14.42,6.31-41.41,9.49-72.68,11.59,9.78-16.88,33.45-46.59,44.49-59.48,1.13-1.62,2.5-1.87,4.17-.32,8.91,6.51,20.23,6.16,34.62-2.56,11.9-6.6,24.86-19.82,32.51-32.1-15.61,8.23-20.03,19.43-36.2,30.37-15.5,8.97-28.37,7.51-34.58-8.87-3.24-12.69-8.72-20.3-15.68-24.54,5.57-1.18,10.89.4,15.6,8.77,6.61,9.62,5.95,13.95,15.87,13.36,26.77.93,55.24-31.97,58.05-58.79l-4.7,12.24c-1.33,4.38-3.35,4.55-4.73,1.16-2.82-4.59-2.11-8.82,2.63-13.76,2.26-2.85,3.85-4.31,6.63-4.31,1.06.02,2.49-.14,5.61.32,3.66.51,10.86.86,18.07,1.2-3.85-7.6-30.96-9.46-51.14,1.14,7.96-.61,15.41-1.24,20.9-1.95-21.83,31.36-68.5,48.72-97.72,23.28,1.38,2.56,4.81,5.82,10.14,10.23-23.56-2.76-43.47-20.89-42.72-40.43,11.93,11.93,27.07,10.6,49.6,8.74,8.4.69,7.61-4.42,5.35-17.1,10.01,1.66,19.33,4.21,39.85-7.43l-11.09,1.28,5.71-16.97c6.22,12.75,9.66,22.55,19.53,26.35l.69,3.2c19.28-5.98,31.82-14.68,55.02-9.12.82-4.82-5.16-7.47-25.82-5.45,4.68-6.04,7.1-11.89,7.16-17.54-.93-3.87.72-4.92,5.12-5.56,5.61-1.17,9.98-3.02,12.51-1.52,2.17,1,4.34.65,6.51-1.33,12.76-8.71,25.35-27.49,63.16-28.71-7.11-3.36-26.86-.57-46.87,4.54-5,2.12-8.04.6-9.98-2.97-3.25-7.31,4.06-8.13,4.98-13.11-3.95-2.14-11.39.88-18.95.88,3.74-14.05,1.46-18.49-10.02-8.26-2.57,3.33-4.57,2.6-6.05-1.77-5.85-16.11-24.46-27.09-22.45-.69-10.45-13.55-20.81-20.54-31.07-21.55-5.54-.11-7.94,3.77-8.97,9.39-.18,6.39,7.32,12.01,11.77,19.38-6.31-2.66-12.57-4.86-18.59-4.83-10.74-.11-16.27,2.57-16.44,8.14.18,5.92,7.04,10.83,16.44,15.36-2.38,2.18-5.51,4.1-9.15,5.85-5.53,2.37-8.85,5.84-10.8,9.98,5.71-3.5,10.14-5.47,12.59-5.06.33,4.49-5.92,6.75-10.39,8.99-9.23,3.15-11.17,3.51-10.64,10.78.25,6.46.82,13.08,1.64,19.83-22.14-16.04-34.43-26.42-46.27-26.42-18.76-.36-21.48,15.35-8.65,38.26.93,19.85,7.77,31.98,26.18,41.83,14.62,8.18,32.23,17.13,37.36,28.88,4.53,8.51,5,13.55,2.04,15.67-17.38,15.87-29.88,35.01-43.22,50.47-4.21-17.11-7.83-33.56-9.66-45.02-1.76-3.68-.29-7.8.56-12.82,3.5-24.32-4.3-41.06-16.13-41.03-3.1-.31-4.57-2-4.72-4.8-.94-8.87-2.6-13.25-7.16-14.24-8.23-1.6-16.71-3.4-25.48-5.43,1.38-3.1,2.44-6.83,3.19-11.22.65-2.76.36-5.16-1.13-7.14-1.04-1.79-1.01-3.8.5-6.14,2-3.55,2.27-7.53-.31-12.21-1.74-3.03-7.35-7.1-12.96-11.71-1.26-.78-2.07-3.79-2.76-7.39-1.84-5.29-4.68-8.34-12.96-9.08l-14.53-1.69c-.15-.29-.32-.56-.49-.84.01.02.03.03.04.05,24.02-69.1,89.61-118.41,166.89-118.41,97.62,0,176.76,79.14,176.76,176.76,0,52.98-23.14,100.41-60.06,132.81ZM317,478.88c.48,1.09.29,1.99-.57,2.71l-10.53,8.48-6.93-15.16c-.83-1.37-.63-2.67,1.26-3.85l9.46-5.61c2.66,2.93,5.19,6.71,7.31,13.43ZM317.45,458.93c4.76-3.42,7.82-1.73,10.48,1.15,2.91,4.84-2.86,10.34-8.01,17.62l-5.25-11.02c-2.45-4.1-1.02-5.43,2.79-7.75ZM302.92,487.95c1.65,3.03.99,5.11-3.31,7.18-4.97,3.14-7.02,3.27-8.87.77l-9.65-15.89c8.81-7.98,16.04-5.01,21.83,7.94ZM282.57,488.64c.5.98,3.08,4.58,5.28,8.14,1.79,2.07,2.26,3.83.13,4.02-4.08.45-8.57.61-13.71.49-7.39-9.68-13.3-17.13-15.11-21.23,3.9.2,7.76.37,10.82,0,5.76-.89,9.01,1.6,12.59,8.58ZM218.44,411.52c2.78-3.93,12.03-1.24,15.78.94,6.88,3.98,11.22,9.56,10.15,12.76-2.08,2.75-9.24,2.53-16.27-1.18-7.03-3.71-9.67-8.95-9.67-12.51ZM286.92,366.42c7.9.31,12.68-.68,13.26-3.42-9.72-2.32-30.58,0-33.46-7.52,4.82-5.42,22.46-5.11,40.91,0-2.21-3.34-4.61-6.5-7.53-9.13-4.43-4.01-7.49-8.96-8.59-15.25-.87-4.08-.43-6.36,5.62-4.95,9.1,1.18,17.89,9.45,25.93,20.62,1.95,2.56,4.58,5.28,7.58,8.08-.46-5.92-1.12-12.79-1.9-20.22-.09-3.74,1.97-4.47,5.91-2.57,7.11,3.13,10.27,16.55,13.5,21.69,2.74-2.46,5.23-4.85,6.92-7.04,4.23-3.99,7.19-5.01,5.44-.62-1.46,4.19-2.77,8.07-3.65,11.15,2.02,1.23,4.28,1.31,6.85-.1,2.47-1.24,5.09-2.28,7.93-2.99-.16,10.75,1.63,17.11,11.97,18.56-7.04,8.89-17.66,13.12-31.2,13.54-21.52.91-44.29,1.12-60.16,4.73l-20.92-3.98c.09-5.34,3.45-9,10.98-10.54l.08-5.45c-.2-3.11,1.06-4.87,4.54-4.58ZM337.51,402.22c0,4.7-3.26,7.58-5.25,8.33-2.41,0-3.33-5.47-3.49-8.33,0-4.7,1.95-8.5,4.37-8.5s4.37,3.81,4.37,8.5ZM282.92,401.94c-.78,4.13-2.19,6.98-3.41,7.23-2.33.47-3.5-2.76-2.86-7.2.62-4.34,1.06-7.34,2.86-7.25,1.88.1,4.15,3.3,3.41,7.23Z"></path>
  </g><text class="st0" transform="translate(-8.87 -40.02)"><tspan x="0" y="0">Silom regular</tspan></text></svg>